<svg width="158" height="112" viewBox="0 0 158 112" fill="none" xmlns="http://www.w3.org/2000/svg">
<path d="M58.7308 29.552C57.9628 29.552 57.5788 29.192 57.5788 28.472C57.5788 27.864 57.8508 27.424 58.3948 27.152C59.0508 27.712 59.8508 27.992 60.7948 27.992C61.7868 27.992 62.6828 26.928 63.4828 24.8C64.4268 22.24 66.0428 16.656 68.3308 8.048C67.2748 8.08 66.1468 8.392 64.9468 8.984C64.8508 8.856 64.8028 8.744 64.8028 8.648C64.8508 8.056 65.5628 7.616 66.9388 7.328C68.3308 7.04 70.1548 6.896 72.4108 6.896C72.7468 6.896 72.9148 7 72.9148 7.208C72.9148 7.304 72.8668 7.408 72.7708 7.52C72.6908 7.616 72.6348 7.688 72.6028 7.736H71.2108C71.0348 7.736 70.8988 7.824 70.8028 8C70.7068 8.176 70.5948 8.488 70.4668 8.936C68.5788 16.056 67.3148 20.496 66.6748 22.256C66.0028 24.128 65.1228 25.64 64.0348 26.792C62.3388 28.632 60.5708 29.552 58.7308 29.552ZM77.4905 22.52C77.4905 21.8 77.9385 20.568 78.8345 18.824C79.2185 18.088 79.4505 17.624 79.5305 17.432H79.4585C79.3945 17.512 79.1385 17.84 78.6905 18.416C78.2425 18.992 77.8905 19.432 77.6345 19.736C77.3785 20.04 76.9945 20.456 76.4825 20.984C75.9865 21.512 75.5545 21.92 75.1865 22.208C74.1945 22.96 73.2905 23.336 72.4745 23.336C71.6585 23.336 71.2505 22.952 71.2505 22.184C71.2505 21.368 72.3945 19.304 74.6825 15.992C75.4505 14.872 75.8345 14.232 75.8345 14.072C75.8345 13.896 75.7545 13.808 75.5945 13.808C75.4345 13.808 75.2425 13.864 75.0185 13.976C74.8105 14.088 74.6425 14.2 74.5145 14.312C74.0345 14.664 73.6985 14.936 73.5065 15.128C73.4425 15.16 73.4025 15.176 73.3865 15.176C73.2425 15.176 73.1785 15.048 73.1945 14.792C73.2105 14.536 73.7065 14.024 74.6825 13.256C75.6585 12.488 76.4345 12.104 77.0105 12.104C77.5865 12.104 77.8745 12.36 77.8745 12.872C77.8745 13.384 77.1705 14.8 75.7625 17.12C74.3705 19.44 73.6745 20.768 73.6745 21.104C73.6745 21.44 73.8185 21.608 74.1065 21.608C74.6185 21.608 75.4345 21.048 76.5545 19.928C77.8345 18.648 79.3305 16.504 81.0425 13.496C81.0905 13.416 81.1625 13.288 81.2585 13.112C81.3545 12.936 81.4265 12.808 81.4745 12.728C81.5225 12.648 81.5865 12.552 81.6665 12.44C81.8265 12.248 82.0345 12.152 82.2905 12.152C82.5465 12.152 82.8025 12.24 83.0585 12.416C83.0425 12.592 82.4345 14.088 81.2345 16.904C80.0505 19.704 79.4585 21.232 79.4585 21.488C79.4585 21.744 79.5945 21.872 79.8665 21.872C80.1385 21.872 80.4425 21.704 80.7785 21.368C81.1305 21.016 81.3705 20.584 81.4985 20.072C81.5305 20.024 81.5785 20 81.6425 20C81.8185 20 81.9065 20.088 81.9065 20.264C81.9065 20.888 81.5225 21.56 80.7545 22.28C80.0025 23 79.2025 23.36 78.3545 23.36C77.7785 23.36 77.4905 23.08 77.4905 22.52ZM88.4156 11.528C88.5436 11.528 88.6076 11.664 88.6076 11.936C88.6076 12.192 88.2556 13.24 87.5516 15.08C86.8476 16.92 86.4796 17.904 86.4476 18.032H86.5196C86.5676 17.968 86.7596 17.696 87.0956 17.216C87.4316 16.72 87.6876 16.36 87.8636 16.136C88.0556 15.896 88.3356 15.544 88.7036 15.08C89.0876 14.6 89.4236 14.224 89.7116 13.952C90.0156 13.68 90.3596 13.392 90.7436 13.088C91.4956 12.496 92.2396 12.2 92.9756 12.2C93.9196 12.2 94.3916 12.648 94.3916 13.544C94.3916 14.04 94.0716 14.888 93.4316 16.088C92.7916 17.288 92.1516 18.432 91.5116 19.52C90.8716 20.592 90.5516 21.216 90.5516 21.392C90.5516 21.568 90.6396 21.656 90.8156 21.656C91.1676 21.656 91.5836 21.432 92.0636 20.984C92.1756 20.888 92.3196 20.76 92.4956 20.6C92.7196 20.392 92.8556 20.288 92.9036 20.288C93.0636 20.288 93.1436 20.384 93.1436 20.576C93.1436 20.896 92.6876 21.44 91.7756 22.208C90.8636 22.976 90.1036 23.36 89.4956 23.36C88.9036 23.36 88.6076 23.08 88.6076 22.52C88.6076 21.944 89.1836 20.552 90.3356 18.344C91.4876 16.12 92.0636 14.832 92.0636 14.48C92.0636 14.112 91.9036 13.928 91.5836 13.928C91.0556 13.928 90.2716 14.472 89.2316 15.56C87.9356 16.952 86.5756 19.176 85.1516 22.232C85.0876 22.36 85.0396 22.456 85.0076 22.52L84.8876 22.76C84.7436 23.048 84.6236 23.208 84.5276 23.24C84.4316 23.288 84.2796 23.312 84.0716 23.312C83.8796 23.312 83.6396 23.224 83.3516 23.048C83.3516 22.84 83.8076 21.376 84.7196 18.656C85.6476 15.936 86.1116 14.48 86.1116 14.288C85.9836 14.368 85.7436 14.504 85.3916 14.696C84.6716 15.112 84.1356 15.464 83.7836 15.752C83.5276 15.72 83.3996 15.608 83.3996 15.416C83.3996 15.208 83.6396 14.944 84.1196 14.624C84.6156 14.304 85.2716 13.872 86.0876 13.328C86.9196 12.784 87.6156 12.232 88.1756 11.672C88.2716 11.576 88.3516 11.528 88.4156 11.528ZM100.261 11.528C100.389 11.528 100.453 11.68 100.453 11.984C100.453 12.272 99.8931 13.72 98.7731 16.328C97.6531 18.936 97.0931 20.512 97.0931 21.056C97.0931 21.296 97.1731 21.416 97.3331 21.416C97.5891 21.416 97.9171 21.224 98.3171 20.84C98.7331 20.44 98.9811 20.24 99.0611 20.24C99.2211 20.24 99.3011 20.32 99.3011 20.48C99.3011 20.64 99.1331 20.936 98.7971 21.368C98.4611 21.8 97.9891 22.232 97.3811 22.664C96.7731 23.096 96.1971 23.312 95.6531 23.312C95.4291 23.312 95.2371 23.232 95.0771 23.072C94.9171 22.928 94.8371 22.728 94.8371 22.472C94.8371 21.864 95.3251 20.392 96.3011 18.056C97.2931 15.704 97.7891 14.472 97.7891 14.36C97.6451 14.456 97.3011 14.664 96.7571 14.984C96.2131 15.288 95.8371 15.544 95.6291 15.752C95.3731 15.72 95.2451 15.6 95.2451 15.392C95.2451 15.184 95.4851 14.92 95.9651 14.6C96.4611 14.28 97.1251 13.848 97.9571 13.304C98.7891 12.76 99.4771 12.216 100.021 11.672C100.117 11.576 100.197 11.528 100.261 11.528ZM101.917 8.456C101.917 8.792 101.805 9.08 101.581 9.32C101.357 9.544 101.077 9.656 100.741 9.656C100.405 9.656 100.117 9.544 99.8771 9.32C99.6371 9.096 99.5171 8.816 99.5171 8.48C99.5171 8.128 99.6291 7.84 99.8531 7.616C100.093 7.376 100.381 7.256 100.717 7.256C101.069 7.256 101.357 7.376 101.581 7.616C101.805 7.84 101.917 8.12 101.917 8.456Z" fill="#201B16"/>
<path d="M66.6464 94.08C66.6464 93.52 66.4944 93.072 66.1904 92.736C65.8864 92.384 65.4544 92.208 64.8944 92.208C64.3344 92.208 63.8944 92.368 63.5744 92.688C63.2544 93.008 63.0944 93.408 63.0944 93.888C63.0944 94.368 63.1664 94.816 63.3104 95.232C62.9104 95.488 62.5264 95.616 62.1584 95.616C61.8064 95.616 61.5264 95.504 61.3184 95.28C61.1264 95.056 61.0304 94.768 61.0304 94.416C61.0304 93.648 61.4864 92.92 62.3984 92.232C63.3104 91.544 64.3024 91.2 65.3744 91.2C66.4464 91.2 67.3024 91.448 67.9424 91.944C68.5984 92.424 68.9264 93.008 68.9264 93.696C68.9264 94.368 68.7184 95.024 68.3024 95.664C67.9024 96.304 67.2944 96.936 66.4784 97.56C65.1344 98.584 63.4944 99.624 61.5584 100.68L61.6064 100.8C62.8224 100.528 64.0544 100.392 65.3024 100.392C67.2864 100.392 68.2784 100.808 68.2784 101.64C68.2784 102.312 67.7584 102.936 66.7184 103.512L66.6224 103.488C66.6224 102.88 66.3824 102.456 65.9024 102.216C65.4384 101.976 64.5744 101.856 63.3104 101.856C62.0464 101.856 60.5984 101.904 58.9664 102C58.8544 102 58.7984 101.936 58.7984 101.808C58.7984 101.68 58.8864 101.568 59.0624 101.472C61.4784 99.92 63.3424 98.536 64.6544 97.32C65.9824 96.104 66.6464 95.024 66.6464 94.08ZM76.9312 91.176C78.1632 91.176 79.1792 91.552 79.9792 92.304C80.7952 93.056 81.2032 94.04 81.2032 95.256C81.2032 97.016 80.4832 98.632 79.0432 100.104C77.6032 101.576 75.9712 102.312 74.1472 102.312C72.9312 102.312 71.9232 101.92 71.1232 101.136C70.3232 100.352 69.9232 99.336 69.9232 98.088C69.9232 96.328 70.6272 94.736 72.0352 93.312C73.4592 91.888 75.0912 91.176 76.9312 91.176ZM76.5952 92.496C75.2032 92.496 74.0112 93.056 73.0192 94.176C72.0272 95.28 71.5312 96.552 71.5312 97.992C71.5312 98.936 71.8032 99.672 72.3472 100.2C72.8912 100.712 73.6032 100.968 74.4832 100.968C75.8752 100.968 77.0832 100.408 78.1072 99.288C79.1472 98.152 79.6672 96.864 79.6672 95.424C79.6672 94.512 79.3792 93.8 78.8032 93.288C78.2272 92.76 77.4912 92.496 76.5952 92.496ZM89.3105 94.08C89.3105 93.52 89.1585 93.072 88.8545 92.736C88.5505 92.384 88.1185 92.208 87.5585 92.208C86.9985 92.208 86.5585 92.368 86.2385 92.688C85.9185 93.008 85.7585 93.408 85.7585 93.888C85.7585 94.368 85.8305 94.816 85.9745 95.232C85.5745 95.488 85.1905 95.616 84.8225 95.616C84.4705 95.616 84.1905 95.504 83.9825 95.28C83.7905 95.056 83.6945 94.768 83.6945 94.416C83.6945 93.648 84.1505 92.92 85.0625 92.232C85.9745 91.544 86.9665 91.2 88.0385 91.2C89.1105 91.2 89.9665 91.448 90.6065 91.944C91.2625 92.424 91.5905 93.008 91.5905 93.696C91.5905 94.368 91.3825 95.024 90.9665 95.664C90.5665 96.304 89.9585 96.936 89.1425 97.56C87.7985 98.584 86.1585 99.624 84.2225 100.68L84.2705 100.8C85.4865 100.528 86.7185 100.392 87.9665 100.392C89.9505 100.392 90.9425 100.808 90.9425 101.64C90.9425 102.312 90.4225 102.936 89.3825 103.512L89.2865 103.488C89.2865 102.88 89.0465 102.456 88.5665 102.216C88.1025 101.976 87.2385 101.856 85.9745 101.856C84.7105 101.856 83.2625 101.904 81.6305 102C81.5185 102 81.4625 101.936 81.4625 101.808C81.4625 101.68 81.5505 101.568 81.7265 101.472C84.1425 99.92 86.0065 98.536 87.3185 97.32C88.6465 96.104 89.3105 95.024 89.3105 94.08ZM96.9553 91.488L100.027 91.416C100.091 91.416 100.123 91.536 100.123 91.776C100.123 92.016 100.051 92.136 99.9073 92.136H98.2273C98.0353 92.136 97.9073 92.272 97.8433 92.544L96.1873 99.168C95.9953 99.984 95.8993 100.544 95.8993 100.848C95.8993 101.136 95.9873 101.28 96.1633 101.28H97.6273C97.7073 101.28 97.7473 101.4 97.7473 101.64C97.7473 101.88 97.6673 102 97.5073 102L94.6033 101.976L91.5072 102.048C91.4432 102.048 91.4112 101.928 91.4112 101.688C91.4112 101.448 91.4832 101.328 91.6273 101.328H93.3073C93.4993 101.328 93.6353 101.192 93.7153 100.92L95.3953 94.2C95.5713 93.496 95.6593 92.984 95.6593 92.664C95.6593 92.344 95.5633 92.184 95.3713 92.184H93.9073C93.8433 92.184 93.8113 92.072 93.8113 91.848C93.8113 91.608 93.8913 91.48 94.0513 91.464C95.2673 91.48 96.2353 91.488 96.9553 91.488Z" fill="#201B16"/>
<path d="M0.5 43.5H59.5" stroke="black" stroke-linecap="round" stroke-linejoin="round"/>
<path d="M0.5 66H59.5" stroke="black" stroke-linecap="round" stroke-linejoin="round"/>
<path d="M98 43.5H157" stroke="black" stroke-linecap="round" stroke-linejoin="round"/>
<path d="M98 66H157" stroke="black" stroke-linecap="round" stroke-linejoin="round"/>
<path d="M75.7804 69.664C78.2764 69.664 80.3564 68.672 82.0204 66.688C83.6844 64.736 84.5164 62.528 84.5164 60.064C84.5164 56.832 83.1404 54.528 80.3884 53.152C78.1804 54.208 76.6604 54.736 75.8284 54.736C74.9964 54.736 74.5804 54.48 74.5804 53.968C74.5804 53.328 75.1084 52.784 76.1644 52.336C77.2524 51.856 78.4524 51.616 79.7644 51.616C81.2364 50.688 82.5644 49.424 83.7484 47.824C84.9324 46.224 85.5244 44.672 85.5244 43.168C85.5244 41.632 85.2204 40.448 84.6124 39.616C84.0364 38.752 83.1404 38.32 81.9244 38.32C80.7084 38.32 79.5724 38.72 78.5164 39.52C77.4604 40.288 76.9324 41.248 76.9324 42.4C76.9324 43.008 77.0924 43.616 77.4124 44.224C76.9324 45.024 76.2764 45.424 75.4444 45.424C73.6844 45.424 72.8044 44.736 72.8044 43.36C72.8044 41.664 73.8764 40.08 76.0204 38.608C78.1964 37.136 80.4044 36.4 82.6444 36.4C84.9164 36.4 86.7404 36.912 88.1164 37.936C89.4924 38.928 90.1804 40.336 90.1804 42.16C90.1804 43.952 89.3964 45.76 87.8284 47.584C86.2924 49.376 84.4684 50.88 82.3564 52.096C84.6604 52.768 86.3564 53.76 87.4444 55.072C88.5644 56.352 89.1244 57.792 89.1244 59.392C89.1244 62.304 87.6524 65.024 84.7084 67.552C81.7964 70.112 78.4364 71.392 74.6284 71.392C72.3564 71.392 70.4684 70.944 68.9644 70.048C67.4924 69.152 66.7564 68.08 66.7564 66.832C66.7564 66.224 67.0124 65.696 67.5244 65.248C68.0044 64.8 68.5644 64.576 69.2044 64.576C69.8764 64.576 70.5164 64.736 71.1244 65.056C71.1244 68.128 72.6764 69.664 75.7804 69.664Z" fill="#C4934A"/>
<path d="M22.2026 51.084C22.2026 51.1447 22.142 51.175 22.0206 51.175C21.8993 51.175 21.8386 51.136 21.8386 51.058C21.8386 51.032 21.8386 50.9713 21.8386 50.876C21.8386 50.772 21.817 50.6463 21.7736 50.499C21.453 49.953 21.0196 49.68 20.4736 49.68C20.075 49.68 19.711 49.81 19.3816 50.07C19.0523 50.33 18.8876 50.668 18.8876 51.084C18.8876 51.5607 19.2213 52.1067 19.8886 52.722C20.166 52.9733 20.439 53.242 20.7076 53.528C20.985 53.8053 21.219 54.1347 21.4096 54.516C21.609 54.8973 21.7086 55.296 21.7086 55.712C21.7086 56.5093 21.4313 57.1203 20.8766 57.545C20.322 57.961 19.646 58.169 18.8486 58.169C18.06 58.169 17.384 57.922 16.8206 57.428C16.708 57.636 16.6343 57.8137 16.5996 57.961C16.565 58.013 16.5043 58.039 16.4176 58.039C16.2963 58.039 16.2356 57.987 16.2356 57.883C16.2356 57.8137 16.266 57.7227 16.3266 57.61C16.5953 57.09 16.7686 56.713 16.8466 56.479C16.9246 56.245 16.968 56.1193 16.9766 56.102C16.9853 56.076 17.0026 56.037 17.0286 55.985C17.0546 55.9243 17.0763 55.8853 17.0936 55.868C17.1196 55.8507 17.15 55.829 17.1846 55.803C17.2453 55.7597 17.345 55.7683 17.4836 55.829C17.3883 56.1323 17.3233 56.3577 17.2886 56.505C17.4533 56.8083 17.6916 57.064 18.0036 57.272C18.3243 57.48 18.6666 57.584 19.0306 57.584C19.3946 57.584 19.724 57.4627 20.0186 57.22C20.322 56.9773 20.4736 56.6437 20.4736 56.219C20.4736 55.751 20.1573 55.2007 19.5246 54.568C19.256 54.2993 18.9916 54.0263 18.7316 53.749C18.4716 53.463 18.2463 53.138 18.0556 52.774C17.8736 52.4013 17.7826 52.0243 17.7826 51.643C17.7826 50.837 18.0686 50.2 18.6406 49.732C19.2126 49.2553 19.8843 49.017 20.6556 49.017C21.193 49.017 21.674 49.1297 22.0986 49.355L22.2156 49.069C22.2416 49.017 22.272 48.991 22.3066 48.991C22.3586 48.991 22.4366 49.0387 22.5406 49.134C22.3153 49.81 22.2026 50.395 22.2026 50.889C22.2026 50.9583 22.2026 51.0233 22.2026 51.084ZM28.5076 52.319C28.7503 52.0503 28.915 51.916 29.0016 51.916C29.0883 51.916 29.1316 51.9637 29.1316 52.059C29.1316 52.1197 29.1013 52.1977 29.0406 52.293C28.9886 52.3797 28.889 52.5357 28.7416 52.761C28.5943 52.9777 28.3993 53.307 28.1566 53.749C27.9226 54.191 27.654 54.7933 27.3506 55.556C27.0473 56.3187 26.8956 56.7737 26.8956 56.921C26.8956 57.0683 26.9433 57.142 27.0386 57.142C27.1686 57.142 27.4373 56.9427 27.8446 56.544C28.2606 56.1453 28.5033 55.946 28.5726 55.946C28.6506 55.946 28.6853 55.9893 28.6766 56.076C28.6766 56.1627 28.5336 56.3707 28.2476 56.7C27.9703 57.0293 27.615 57.3587 27.1816 57.688C26.757 58.0087 26.393 58.169 26.0896 58.169C25.9596 58.169 25.8513 58.13 25.7646 58.052C25.6866 57.9827 25.6476 57.8787 25.6476 57.74C25.6476 57.6013 25.7083 57.3673 25.8296 57.038C25.9596 56.7 26.1286 56.2927 26.3366 55.816C26.5446 55.3393 26.679 55.023 26.7396 54.867C25.0236 57.0857 23.858 58.195 23.2426 58.195C23.0346 58.195 22.8613 58.1257 22.7226 57.987C22.584 57.8483 22.5146 57.636 22.5146 57.35C22.5146 57.0553 22.6186 56.6263 22.8266 56.063C23.0346 55.491 23.3033 54.9103 23.6326 54.321C23.9706 53.7317 24.3953 53.2247 24.9066 52.8C25.418 52.3667 25.9336 52.15 26.4536 52.15C26.939 52.15 27.342 52.293 27.6626 52.579C27.7753 52.6743 27.849 52.722 27.8836 52.722C28.057 52.722 28.265 52.5877 28.5076 52.319ZM27.2856 53.489C27.2076 53.3157 27.043 53.1423 26.7916 52.969C26.5403 52.787 26.276 52.696 25.9986 52.696C25.7213 52.696 25.3876 52.9603 24.9976 53.489C24.6076 54.0177 24.2826 54.6027 24.0226 55.244C23.7713 55.8767 23.6456 56.3577 23.6456 56.687C23.6456 57.0163 23.7453 57.181 23.9446 57.181C24.1873 57.181 24.7246 56.713 25.5566 55.777C26.3973 54.8323 26.9736 54.0697 27.2856 53.489ZM29.3179 57.181C29.2312 57.077 29.1879 56.9687 29.1879 56.856C29.1879 56.7347 29.2486 56.531 29.3699 56.245C29.4912 55.959 29.6386 55.5603 29.8119 55.049C29.9939 54.529 30.1629 54.0437 30.3189 53.593C30.4749 53.1337 30.6526 52.644 30.8519 52.124C31.0512 51.5953 31.2636 51.123 31.4889 50.707C31.7229 50.291 31.9786 49.9053 32.2559 49.55C32.8452 48.8133 33.5429 48.445 34.3489 48.445C34.6869 48.445 34.8646 48.562 34.8819 48.796C34.8819 48.9 34.8342 48.9953 34.7389 49.082C34.6522 49.1687 34.5266 49.2293 34.3619 49.264C34.1886 49.1687 34.0239 49.121 33.8679 49.121C33.4432 49.121 32.8972 49.784 32.2299 51.11C31.5712 52.4273 31.0512 53.8487 30.6699 55.374C32.1606 53.2073 33.2179 52.124 33.8419 52.124C34.0586 52.124 34.2449 52.2063 34.4009 52.371C34.5569 52.527 34.6349 52.748 34.6349 53.034C34.6349 53.32 34.5829 53.671 34.4789 54.087C34.3836 54.4943 34.2362 54.9363 34.0369 55.413C33.8376 55.881 33.6036 56.323 33.3349 56.739C33.0662 57.1463 32.7369 57.4887 32.3469 57.766C31.9656 58.0347 31.5669 58.169 31.1509 58.169C30.5096 58.169 29.8986 57.8397 29.3179 57.181ZM30.2019 56.83C30.2972 57.0033 30.4749 57.181 30.7349 57.363C31.0036 57.5363 31.2722 57.623 31.5409 57.623C31.8182 57.623 32.1216 57.376 32.4509 56.882C32.7889 56.3793 33.0576 55.8247 33.2569 55.218C33.4649 54.6027 33.5689 54.1043 33.5689 53.723C33.5689 53.333 33.4476 53.138 33.2049 53.138C32.9709 53.138 32.4769 53.6103 31.7229 54.555C30.9689 55.491 30.4619 56.2493 30.2019 56.83ZM37.5204 52.813C36.6364 55.2657 36.1944 56.6003 36.1944 56.817C36.1944 57.0337 36.2464 57.142 36.3504 57.142C36.4891 57.142 36.7491 56.9427 37.1304 56.544C37.5117 56.1453 37.7414 55.946 37.8194 55.946C37.8974 55.946 37.9364 55.9893 37.9364 56.076C37.9364 56.154 37.8107 56.3577 37.5594 56.687C37.3081 57.0077 36.9744 57.337 36.5584 57.675C36.1424 58.0043 35.7697 58.169 35.4404 58.169C35.3277 58.169 35.2237 58.1257 35.1284 58.039C35.0417 57.961 34.9984 57.8397 34.9984 57.675C34.9984 57.5017 35.0721 57.1723 35.2194 56.687C35.3754 56.2017 35.6051 55.5213 35.9084 54.646C36.2204 53.762 36.4327 53.151 36.5454 52.813H35.4404C35.3797 52.813 35.3494 52.774 35.3494 52.696C35.3494 52.6093 35.3667 52.5357 35.4014 52.475C35.4361 52.4143 35.4794 52.384 35.5314 52.384C36.0601 52.384 36.4154 52.3363 36.5974 52.241C36.8314 52.1197 37.0221 51.6517 37.1694 50.837C37.2907 50.7677 37.4381 50.733 37.6114 50.733C37.9407 50.733 38.1054 50.8457 38.1054 51.071C38.1054 51.123 38.0707 51.2487 38.0014 51.448C37.8367 51.916 37.7371 52.202 37.7024 52.306H39.0544C39.1237 52.306 39.1584 52.3537 39.1584 52.449C39.1584 52.5357 39.1367 52.618 39.0934 52.696C39.0587 52.774 39.0154 52.813 38.9634 52.813H37.5204ZM41.9016 57.74C41.9016 57.35 42.1443 56.6827 42.6296 55.738C42.8376 55.3393 42.9633 55.088 43.0066 54.984H42.9676C42.9329 55.0273 42.7943 55.205 42.5516 55.517C42.3089 55.829 42.1183 56.0673 41.9796 56.232C41.8409 56.3967 41.6329 56.622 41.3556 56.908C41.0869 57.194 40.8529 57.415 40.6536 57.571C40.1163 57.9783 39.6266 58.182 39.1846 58.182C38.7426 58.182 38.5216 57.974 38.5216 57.558C38.5216 57.116 39.1413 55.998 40.3806 54.204C40.7966 53.5973 41.0046 53.2507 41.0046 53.164C41.0046 53.0687 40.9613 53.021 40.8746 53.021C40.7879 53.021 40.6839 53.0513 40.5626 53.112C40.4499 53.1727 40.3589 53.2333 40.2896 53.294C40.0296 53.4847 39.8476 53.632 39.7436 53.736C39.7089 53.7533 39.6873 53.762 39.6786 53.762C39.6006 53.762 39.5659 53.6927 39.5746 53.554C39.5833 53.4153 39.8519 53.138 40.3806 52.722C40.9093 52.306 41.3296 52.098 41.6416 52.098C41.9536 52.098 42.1096 52.2367 42.1096 52.514C42.1096 52.7913 41.7283 53.5583 40.9656 54.815C40.2116 56.0717 39.8346 56.791 39.8346 56.973C39.8346 57.155 39.9126 57.246 40.0686 57.246C40.3459 57.246 40.7879 56.9427 41.3946 56.336C42.0879 55.6427 42.8983 54.4813 43.8256 52.852C43.8516 52.8087 43.8906 52.7393 43.9426 52.644C43.9946 52.5487 44.0336 52.4793 44.0596 52.436C44.0856 52.3927 44.1203 52.3407 44.1636 52.28C44.2503 52.176 44.3629 52.124 44.5016 52.124C44.6403 52.124 44.7789 52.1717 44.9176 52.267C44.9089 52.3623 44.5796 53.1727 43.9296 54.698C43.2883 56.2147 42.9676 57.0423 42.9676 57.181C42.9676 57.3197 43.0413 57.389 43.1886 57.389C43.3359 57.389 43.5006 57.298 43.6826 57.116C43.8733 56.9253 44.0033 56.6913 44.0726 56.414C44.0899 56.388 44.1159 56.375 44.1506 56.375C44.2459 56.375 44.2936 56.4227 44.2936 56.518C44.2936 56.856 44.0856 57.22 43.6696 57.61C43.2623 58 42.8289 58.195 42.3696 58.195C42.0576 58.195 41.9016 58.0433 41.9016 57.74Z" fill="black"/>
<path d="M102.77 52.137C103.438 52.137 103.988 52.3407 104.421 52.748C104.863 53.1553 105.084 53.6883 105.084 54.347C105.084 55.3003 104.694 56.1757 103.914 56.973C103.134 57.7703 102.25 58.169 101.262 58.169C100.604 58.169 100.058 57.9567 99.6243 57.532C99.191 57.1073 98.9743 56.557 98.9743 55.881C98.9743 54.9277 99.3557 54.0653 100.118 53.294C100.89 52.5227 101.774 52.137 102.77 52.137ZM102.588 52.852C101.834 52.852 101.189 53.1553 100.651 53.762C100.114 54.36 99.8453 55.049 99.8453 55.829C99.8453 56.3403 99.9927 56.739 100.287 57.025C100.582 57.3023 100.968 57.441 101.444 57.441C102.198 57.441 102.853 57.1377 103.407 56.531C103.971 55.9157 104.252 55.218 104.252 54.438C104.252 53.944 104.096 53.5583 103.784 53.281C103.472 52.995 103.074 52.852 102.588 52.852ZM104.744 61.705C104.64 61.705 104.588 61.653 104.588 61.549C104.588 61.497 104.614 61.4623 104.666 61.445C106.156 60.873 107.465 60.0193 108.592 58.884C109.164 58.312 109.619 57.6577 109.957 56.921C110.295 56.1757 110.464 55.4563 110.464 54.763C110.464 54.0697 110.338 53.541 110.087 53.177C109.844 52.813 109.541 52.631 109.177 52.631C108.639 52.631 108.21 52.8823 107.89 53.385C107.578 53.8877 107.422 54.4467 107.422 55.062C107.422 55.4 107.508 55.6947 107.682 55.946C107.855 56.1973 108.119 56.323 108.475 56.323C108.622 56.323 108.782 56.2927 108.956 56.232C109.138 56.1713 109.233 56.141 109.242 56.141C109.337 56.141 109.385 56.1887 109.385 56.284C109.385 56.4313 109.233 56.57 108.93 56.7C108.626 56.83 108.319 56.895 108.007 56.895C107.452 56.895 106.988 56.6957 106.616 56.297C106.252 55.8983 106.07 55.4477 106.07 54.945C106.07 54.1823 106.412 53.528 107.097 52.982C107.781 52.4273 108.527 52.15 109.333 52.15C109.983 52.15 110.555 52.4057 111.049 52.917C111.543 53.4283 111.79 54.0697 111.79 54.841C111.79 55.8637 111.439 56.8733 110.737 57.87C110.043 58.8667 109.159 59.703 108.085 60.379C107.019 61.055 105.918 61.497 104.783 61.705C104.774 61.705 104.761 61.705 104.744 61.705ZM114.852 57.402C114.852 57.61 114.778 57.792 114.631 57.948C114.492 58.0953 114.319 58.169 114.111 58.169C113.912 58.169 113.738 58.0997 113.591 57.961C113.444 57.8137 113.37 57.6403 113.37 57.441C113.37 57.2417 113.435 57.0683 113.565 56.921C113.704 56.765 113.873 56.687 114.072 56.687C114.28 56.687 114.462 56.7563 114.618 56.895C114.774 57.025 114.852 57.194 114.852 57.402ZM115.814 53.047C115.814 53.255 115.74 53.437 115.593 53.593C115.454 53.7403 115.281 53.814 115.073 53.814C114.874 53.814 114.7 53.7447 114.553 53.606C114.406 53.4587 114.332 53.2853 114.332 53.086C114.332 52.8867 114.397 52.7133 114.527 52.566C114.666 52.41 114.835 52.332 115.034 52.332C115.242 52.332 115.424 52.4013 115.58 52.54C115.736 52.67 115.814 52.839 115.814 53.047ZM120.036 52.137C120.703 52.137 121.254 52.3407 121.687 52.748C122.129 53.1553 122.35 53.6883 122.35 54.347C122.35 55.3003 121.96 56.1757 121.18 56.973C120.4 57.7703 119.516 58.169 118.528 58.169C117.869 58.169 117.323 57.9567 116.89 57.532C116.457 57.1073 116.24 56.557 116.24 55.881C116.24 54.9277 116.621 54.0653 117.384 53.294C118.155 52.5227 119.039 52.137 120.036 52.137ZM119.854 52.852C119.1 52.852 118.454 53.1553 117.917 53.762C117.38 54.36 117.111 55.049 117.111 55.829C117.111 56.3403 117.258 56.739 117.553 57.025C117.848 57.3023 118.233 57.441 118.71 57.441C119.464 57.441 120.118 57.1377 120.673 56.531C121.236 55.9157 121.518 55.218 121.518 54.438C121.518 53.944 121.362 53.5583 121.05 53.281C120.738 52.995 120.339 52.852 119.854 52.852ZM127.183 52.137C127.851 52.137 128.401 52.3407 128.834 52.748C129.276 53.1553 129.497 53.6883 129.497 54.347C129.497 55.3003 129.107 56.1757 128.327 56.973C127.547 57.7703 126.663 58.169 125.675 58.169C125.017 58.169 124.471 57.9567 124.037 57.532C123.604 57.1073 123.387 56.557 123.387 55.881C123.387 54.9277 123.769 54.0653 124.531 53.294C125.303 52.5227 126.187 52.137 127.183 52.137ZM127.001 52.852C126.247 52.852 125.602 53.1553 125.064 53.762C124.527 54.36 124.258 55.049 124.258 55.829C124.258 56.3403 124.406 56.739 124.7 57.025C124.995 57.3023 125.381 57.441 125.857 57.441C126.611 57.441 127.266 57.1377 127.82 56.531C128.384 55.9157 128.665 55.218 128.665 54.438C128.665 53.944 128.509 53.5583 128.197 53.281C127.885 52.995 127.487 52.852 127.001 52.852ZM135.277 54.035L135.303 56.817H135.355C136.118 55.9937 136.88 54.828 137.643 53.32C138.406 51.812 138.787 50.7287 138.787 50.07C138.787 49.9313 138.705 49.862 138.54 49.862H138.098C138.046 49.862 138.02 49.8273 138.02 49.758C138.046 49.55 138.111 49.446 138.215 49.446C138.7 49.4113 139.134 49.394 139.515 49.394L140.347 49.329C139.818 51.1403 139.554 53.6017 139.554 56.713H139.619C140.304 55.933 140.902 55.1357 141.413 54.321C141.924 53.5063 142.306 52.787 142.557 52.163C142.99 51.097 143.237 50.2953 143.298 49.758C143.298 49.6713 143.272 49.628 143.22 49.628H142.466C142.397 49.628 142.362 49.5977 142.362 49.537C142.362 49.4677 142.384 49.3983 142.427 49.329C142.479 49.251 142.527 49.212 142.57 49.212C143.35 49.2293 143.866 49.238 144.117 49.238C144.273 49.238 144.351 49.342 144.351 49.55C144.03 50.5553 143.636 51.5347 143.168 52.488C142.709 53.4413 142.254 54.2517 141.803 54.919C141.352 55.5863 140.91 56.1757 140.477 56.687C140.044 57.1983 139.675 57.5797 139.372 57.831C139.077 58.0823 138.869 58.208 138.748 58.208C138.497 58.208 138.371 57.415 138.371 55.829C138.371 54.2343 138.492 53.0427 138.735 52.254C138.215 53.4587 137.665 54.5117 137.084 55.413C136.512 56.3057 135.793 57.2027 134.926 58.104C134.848 58.182 134.731 58.221 134.575 58.221C134.428 58.221 134.341 58.182 134.315 58.104C134.263 57.87 134.237 57.5537 134.237 57.155C134.237 56.7477 134.263 55.7943 134.315 54.295C134.376 52.787 134.406 51.383 134.406 50.083C134.406 49.9703 134.384 49.8967 134.341 49.862C134.298 49.8273 134.22 49.8143 134.107 49.823L133.236 49.914C133.323 49.5327 133.461 49.342 133.652 49.342C134.215 49.2987 134.631 49.277 134.9 49.277L136.746 49.173C136.789 49.173 136.811 49.212 136.811 49.29C136.811 49.368 136.759 49.446 136.655 49.524C136.56 49.602 136.456 49.6453 136.343 49.654C135.927 49.654 135.645 50.0483 135.498 50.837C135.351 51.6257 135.277 52.6917 135.277 54.035ZM148.624 49.277C148.806 49.277 148.897 49.3333 148.897 49.446C148.897 49.498 148.871 49.5543 148.819 49.615C148.775 49.667 148.745 49.706 148.728 49.732H147.974C147.878 49.732 147.805 49.784 147.753 49.888C147.701 49.9833 147.644 50.148 147.584 50.382C147.003 52.8953 146.561 54.62 146.258 55.556C145.963 56.492 145.612 57.129 145.205 57.467C145.404 57.467 145.673 57.4887 146.011 57.532C146.349 57.5753 146.622 57.597 146.83 57.597C146.804 57.7097 146.73 57.8137 146.609 57.909C146.496 58.0043 146.379 58.052 146.258 58.052L144.126 57.805C143.779 57.805 143.437 57.8527 143.099 57.948C143.099 57.9133 143.103 57.87 143.112 57.818C143.12 57.766 143.177 57.6923 143.281 57.597C143.385 57.493 143.532 57.428 143.723 57.402C144.035 57.3587 144.29 57.1897 144.49 56.895C144.689 56.5917 144.88 56.063 145.062 55.309L146.388 49.901C145.816 49.9183 145.205 50.0873 144.555 50.408C144.503 50.3387 144.477 50.278 144.477 50.226C144.494 49.9053 144.88 49.667 145.634 49.511C146.396 49.355 147.393 49.277 148.624 49.277ZM153.584 49.277C154.476 49.277 155.17 49.4677 155.664 49.849C156.158 50.2217 156.405 50.6767 156.405 51.214C156.405 51.7513 156.192 52.2453 155.768 52.696C155.343 53.1467 154.758 53.4413 154.013 53.58C154.593 53.7707 155.053 54.0263 155.391 54.347C155.737 54.6677 155.911 55.0707 155.911 55.556C155.911 56.0327 155.707 56.492 155.3 56.934C154.892 57.3673 154.433 57.6837 153.922 57.883C153.419 58.0823 152.947 58.182 152.505 58.182C152.063 58.182 151.491 58.1213 150.789 58C150.095 57.87 149.575 57.805 149.229 57.805C148.882 57.805 148.535 57.8527 148.189 57.948C148.189 57.922 148.193 57.8873 148.202 57.844C148.21 57.792 148.271 57.7183 148.384 57.623C148.496 57.5277 148.678 57.4583 148.93 57.415C149.181 57.3717 149.411 57.1983 149.619 56.895C149.835 56.583 150.035 56.0543 150.217 55.309L151.543 49.966C150.988 49.9833 150.381 50.1523 149.723 50.473C149.679 50.4297 149.658 50.369 149.658 50.291C149.658 50.2043 149.697 50.1177 149.775 50.031C149.861 49.9443 150 49.8577 150.191 49.771C150.39 49.6757 150.637 49.5933 150.932 49.524C151.556 49.3593 152.44 49.277 153.584 49.277ZM154.663 55.894C154.663 55.2873 154.416 54.7673 153.922 54.334C153.428 53.9007 152.76 53.6667 151.92 53.632C151.885 53.7447 151.816 54.022 151.712 54.464C151.608 54.8973 151.512 55.2657 151.426 55.569C151.339 55.8637 151.205 56.1713 151.023 56.492C150.849 56.8127 150.659 57.025 150.451 57.129L150.438 57.168C150.55 57.1333 150.715 57.116 150.932 57.116C151.148 57.116 151.508 57.155 152.011 57.233C152.513 57.311 152.947 57.35 153.311 57.35C153.683 57.35 154 57.2027 154.26 56.908C154.528 56.6047 154.663 56.2667 154.663 55.894ZM152.817 53.125C153.449 53.125 153.969 52.9257 154.377 52.527C154.784 52.1197 154.988 51.695 154.988 51.253C154.988 50.811 154.84 50.46 154.546 50.2C154.251 49.9313 153.818 49.797 153.246 49.797C152.986 49.797 152.808 49.9963 152.713 50.395L152.063 53.021C152.34 53.0903 152.591 53.125 152.817 53.125Z" fill="black"/>
</svg>
